<svg version="1.0" xmlns="http://www.w3.org/2000/svg"
 width="596.000000pt" height="596.000000pt" viewBox="0 0 596.000000 596.000000"
 preserveAspectRatio="xMidYMid meet">
<g transform="translate(0.000000,596.000000) scale(0.100000,-0.100000)"
fill="currentColor" stroke="none">
<path d="M2975 5063 c-334 -28 -672 -95 -884 -177 -202 -78 -437 -214 -616
-356 -98 -78 -292 -266 -391 -378 -196 -223 -389 -663 -455 -1037 -32 -186
-33 -475 0 -658 47 -265 114 -459 200 -575 129 -174 309 -299 518 -361 147
-44 233 -52 513 -50 234 2 277 0 365 -18 185 -38 337 -101 460 -188 113 -81
253 -244 295 -344 7 -17 15 -31 19 -31 4 0 16 19 28 43 30 63 136 198 196 253
148 133 327 219 556 266 95 19 133 21 371 19 280 -2 366 6 513 50 209 62 389
187 518 361 86 116 153 310 200 575 33 183 32 472 0 658 -66 374 -259 814
-455 1037 -99 112 -293 300 -391 378 -179 142 -414 278 -616 356 -179 69 -497
139 -749 163 -159 16 -161 16 -195 14z m-899 -2118 c100 -56 178 -134 221
-223 35 -69 38 -83 41 -176 8 -229 -74 -404 -245 -519 -177 -119 -341 -94
-523 79 -89 86 -102 115 -121 277 -38 330 115 530 449 587 89 15 113 11 178
-25z m2125 4 c274 -76 395 -266 360 -566 -19 -162 -32 -191 -121 -277 -182
-173 -346 -198 -523 -79 -171 115 -253 290 -245 519 3 93 6 107 41 176 43 88
120 165 219 223 60 34 66 36 130 30 37 -3 100 -15 139 -26z"/>
</g>
</svg>
